
<svg width="70" height="170" viewBox="0 0 70 170" fill="none" xmlns="http://www.w3.org/2000/svg">
<path fill-rule="evenodd" clip-rule="evenodd" d="M25.4631 68.5223C23.8792 69.7375 22.752 70.2486 22.2176 70.5958C21.4888 71.0779 21.2847 71.6276 21.2167 72.0134C21.139 72.5052 21.2361 73.1899 22.1398 73.865C22.6548 74.2508 23.8501 74.8583 25.8518 76.1409C28.0771 77.5104 30.1857 78.1372 32.0223 78.3687C35.9966 78.8701 38.7466 77.5104 38.7466 77.5104C39.4268 77.1825 39.7961 76.4399 39.6309 75.7166L38.3579 70.2293C37.3182 70.3643 36.2687 70.4318 35.2095 70.4415L36.1716 74.974C35.297 75.1669 34.0046 75.3405 32.4498 75.138C30.9923 74.9548 29.3306 74.4533 27.5718 73.3828C26.7264 72.8813 25.8615 72.5245 25.1911 72.2545C25.9879 71.7048 27.0373 70.914 28.2811 69.6892L28.0674 69.4578C27.1734 69.1878 26.3085 68.8792 25.4729 68.5127L25.4631 68.5223ZM24.2096 71.8109C23.957 71.6566 23.8501 71.5119 23.957 71.3673C24.0541 71.2226 24.1222 71.618 24.161 71.6951C24.1805 71.7337 24.1902 71.7723 24.2096 71.8109Z" fill="white"/>
<path fill-rule="evenodd" clip-rule="evenodd" d="M33.5444 71.7628C43.1062 72.3221 52.0655 67.9438 58.7219 60.4602C64.5134 53.941 68.5557 45.0494 69.7218 35.0681C70.8101 25.4146 68.6529 18.4614 64.8729 13.3309C60.1989 6.97565 52.979 3.42673 46.1963 1.07364C39.5011 -1.24087 30.2989 0.234632 22.3016 5.03725C15.6064 9.05872 9.75659 15.3658 6.9483 23.5437C5.38382 28.1438 4.8688 33.5154 5.41297 38.9738C5.92798 44.0368 7.32727 49.1673 9.55252 53.806C14.2071 63.4787 22.4182 70.9913 33.5639 71.4252L33.5444 71.7628ZM33.661 69.429C23.4385 68.7828 16.1408 61.6175 12.0596 52.6487C10.0675 48.2704 8.84316 43.4389 8.42532 38.6941C7.98804 33.6794 8.42532 28.7514 9.90234 24.5563C12.4871 17.1209 17.8511 11.4118 23.9535 7.77609C31.0568 3.54246 39.1805 2.06696 45.108 4.13073C51.2979 6.29095 57.9348 9.45411 62.2104 15.2597C65.592 19.8405 67.4285 26.0704 66.4665 34.7112C65.4559 44.0272 61.7634 52.3401 56.4189 58.4736C50.433 65.34 42.3871 69.4868 33.6805 69.1011L33.661 69.4386V69.429Z" fill="white"/>
<path fill-rule="evenodd" clip-rule="evenodd" d="M17.8488 23.6883C17.7614 22.9747 17.2075 22.3671 16.4592 22.2225C15.0794 21.9717 14.6324 22.8011 14.4866 23.0518C14.2923 23.3701 14.2048 23.7558 14.2729 24.1994C14.3117 24.4212 14.9433 25.3374 14.9433 25.3374C14.9433 25.3374 14.9142 25.2988 14.8948 25.2795C15.5069 25.9932 16.5953 26.08 17.3046 25.4724C17.8294 25.0192 18.014 24.3152 17.8294 23.6883H17.8488Z" fill="white"/>
<path fill-rule="evenodd" clip-rule="evenodd" d="M28.5631 18.6641C29.3988 19.0595 30.4094 18.722 30.8272 17.8926C31.2548 17.0536 30.9049 16.041 30.0693 15.6167C29.7292 15.4431 29.4474 15.3756 29.0781 15.3081C28.155 15.1345 27.2513 15.7517 27.0763 16.6679C26.9014 17.5937 27.5233 18.4809 28.4562 18.6448L28.5728 18.6641H28.5631Z" fill="white"/>
<path fill-rule="evenodd" clip-rule="evenodd" d="M42.1017 11.3535H42.0531C41.1203 11.1703 40.2263 11.7875 40.0611 12.7037C39.8862 13.6295 40.4984 14.5071 41.4312 14.6807C41.8491 14.7578 42.2086 14.806 42.6362 14.6807C43.5496 14.4492 44.1035 13.5234 43.8702 12.6169C43.6662 11.8164 42.9082 11.2957 42.1017 11.3439V11.3535Z" fill="white"/>
<path fill-rule="evenodd" clip-rule="evenodd" d="M55.0925 11.0264C54.8496 10.9686 54.6066 10.93 54.3734 10.8914C53.4406 10.7178 52.5563 11.3254 52.3814 12.2512C52.2065 13.1674 52.8187 14.0642 53.7515 14.2282C53.9362 14.2571 54.1111 14.286 54.286 14.3343C55.1994 14.5561 56.1323 13.9967 56.3558 13.0806C56.5792 12.174 56.0156 11.2482 55.1022 11.0264H55.0925Z" fill="white"/>
<path fill-rule="evenodd" clip-rule="evenodd" d="M16.3043 48.7233C16.7318 49.1187 17.3537 49.2923 17.9562 49.1187C18.8599 48.8487 19.3846 47.9036 19.1125 47.0067C18.8696 46.1966 18.5684 46.0616 18.4129 45.9555C18.3157 45.888 18.1505 45.753 17.5675 45.6469C16.6346 45.4734 15.7504 46.0906 15.5755 47.0067C15.4491 47.6914 15.7504 48.3568 16.3043 48.7233Z" fill="white"/>
<path fill-rule="evenodd" clip-rule="evenodd" d="M31.0624 39.5908C30.8972 39.5715 30.7417 39.5426 30.5766 39.5136C29.6437 39.3401 28.7594 39.9573 28.5845 40.8734C28.4096 41.7992 29.0218 42.6768 29.9546 42.8504C30.1781 42.889 30.3919 42.9275 30.6154 42.9565C31.5483 43.0818 32.4131 42.4261 32.5297 41.5003C32.656 40.5648 31.9953 39.7162 31.0527 39.5908H31.0624Z" fill="white"/>
<path fill-rule="evenodd" clip-rule="evenodd" d="M45.8717 35.3379C45.6191 35.01 45.2498 34.7689 44.8126 34.6821C43.8797 34.5085 42.9954 35.1257 42.8205 36.0515C42.7136 36.6108 42.9663 37.4595 43.6368 37.9706C44.2587 38.4432 45.0846 38.4432 45.2401 38.4239C46.173 38.2503 46.7754 37.3631 46.6005 36.4373C46.5131 35.9744 46.241 35.5886 45.8717 35.3475V35.3379ZM45.5705 35.1739C45.279 35.0582 44.9389 35.01 44.5988 35.0678C44.6862 35.0582 45.1624 34.9618 45.5705 35.1739Z" fill="white"/>
<path fill-rule="evenodd" clip-rule="evenodd" d="M57.1042 35.2898C57.2402 35.5116 57.4734 35.801 58.0176 36.0228C58.8922 36.3892 59.893 35.9745 60.2526 35.1066C60.5247 34.4701 60.3692 33.7661 59.9319 33.2936L59.9028 33.255C59.7278 33.0139 59.4655 32.6667 58.7367 32.5317C57.8038 32.3581 56.9098 32.9753 56.7446 33.8915C56.6475 34.4122 56.7932 34.9137 57.1042 35.2898ZM57.4832 35.6177C57.6484 35.7238 57.8233 35.801 58.0273 35.8492C57.7844 35.801 57.6192 35.7142 57.4832 35.6177ZM60.0777 33.6311C60.1748 33.8529 60.2234 34.1229 60.2234 34.1229C60.2234 34.1229 60.1651 33.8722 60.0777 33.6311ZM59.4752 32.956C59.4752 32.956 59.3878 32.9175 59.3392 32.8885C59.3878 32.9078 59.4363 32.9271 59.4752 32.956Z" fill="white"/>
<path fill-rule="evenodd" clip-rule="evenodd" d="M35.6759 65.8316C36.2589 65.2627 36.3658 64.3465 35.8896 63.6618C35.3552 62.8903 34.2863 62.6878 33.5089 63.2278C32.9453 63.6136 32.7218 63.8064 32.5663 64.0861C32.4303 64.3369 32.2651 64.7226 32.3526 65.4941C32.4692 66.4296 33.3146 67.095 34.2571 66.9793C34.9373 66.8925 35.4718 66.4296 35.6759 65.8316Z" fill="white"/>
<path fill-rule="evenodd" clip-rule="evenodd" d="M44.9464 60.4891C44.7034 60.0937 44.2953 59.7948 43.7997 59.708C42.8669 59.5344 41.9826 60.1516 41.8077 61.0678C41.5842 62.2539 42.0701 62.5722 42.245 62.7554C42.3324 62.8326 42.4976 63.0062 43.0904 63.228C43.9746 63.5559 44.9561 63.1219 45.2962 62.2443C45.5294 61.6175 45.3739 60.952 44.9464 60.4891Z" fill="white"/>
<path fill-rule="evenodd" clip-rule="evenodd" d="M50.6531 56.6798C49.9049 56.7473 49.2732 57.297 49.1275 58.0588C48.9526 58.9847 49.5648 59.8719 50.4976 60.0455C50.7891 60.1033 51.0709 60.0744 51.2944 60.0358C52.1496 60.1708 52.9852 59.6404 53.2087 58.7918C53.4517 57.8853 52.9075 56.9498 51.9941 56.7087C51.3624 56.5448 50.9155 56.6026 50.6531 56.6798Z" fill="white"/>
<path fill-rule="evenodd" clip-rule="evenodd" d="M29.0222 75.3984C29.1874 74.6462 29.9356 74.164 30.7033 74.3279C31.471 74.4919 31.9471 75.2441 31.7819 75.9963C31.4612 77.4525 30.9754 78.7255 30.4701 80.0467C28.8667 84.2514 27.0302 89.054 30.8005 102.035C34.1724 113.665 27.827 116.732 20.1601 120.435C15.7096 122.586 10.7635 124.977 7.45961 129.654C6.2158 131.419 5.18577 133.271 4.41811 135.2C2.669 139.53 2.27059 144.13 3.68931 148.595C5.12747 153.108 8.43134 157.535 14.1062 161.479C17.1186 163.572 20.8111 165.529 25.2519 167.294C25.9807 167.584 26.3305 168.403 26.039 169.117C25.7475 169.84 24.9215 170.187 24.2025 169.898C19.577 168.066 15.6901 165.992 12.4834 163.765C6.2741 159.444 2.62041 154.516 0.99763 149.434C-0.63487 144.303 -0.187877 139.057 1.78473 134.148C2.63013 132.046 3.76705 130.002 5.1469 128.044C8.86861 122.759 14.1645 120.213 18.9163 117.908C25.4171 114.764 30.8102 112.161 28.0894 102.806C24.0567 88.9286 26.0682 83.6631 27.8367 79.0534C28.3031 77.8286 28.7501 76.6521 29.0319 75.3887L29.0222 75.3984Z" fill="white"/>
<path fill-rule="evenodd" clip-rule="evenodd" d="M9.28591 22.6375C8.89722 22.975 8.30447 22.9461 7.95465 22.5603C7.61454 22.1746 7.6437 21.5863 8.03239 21.2391C12.8619 17.0055 20.9563 13.6205 29.216 11.1806C41.1099 7.66062 53.4606 6.10797 56.8228 6.85054C57.3281 6.96627 57.6487 7.4581 57.5418 7.96922C57.4252 8.4707 56.9296 8.78895 56.4146 8.68286C53.2662 7.98851 41.3626 9.54116 29.7505 12.9744C21.724 15.3467 13.8822 18.616 9.2762 22.6471L9.28591 22.6375Z" fill="white"/>
<path fill-rule="evenodd" clip-rule="evenodd" d="M8.64655 32.6183C8.22871 32.9269 7.64567 32.8401 7.33472 32.4254C7.02376 32.0107 7.11122 31.4225 7.52906 31.1235C13.1456 26.9574 23.6111 23.0131 34.1446 20.1103C46.6313 16.6674 59.2929 14.6905 64.0738 15.5681C64.5888 15.6645 64.9289 16.1467 64.8318 16.6578C64.7346 17.1689 64.2487 17.5065 63.7337 17.41C59.1957 16.5807 46.8937 18.5383 34.6402 21.9137C24.3011 24.7586 14.0591 28.6161 8.65627 32.6183H8.64655Z" fill="white"/>
<path fill-rule="evenodd" clip-rule="evenodd" d="M10.6203 47.5666C10.2607 47.9427 9.66797 47.962 9.289 47.6052C8.91002 47.2483 8.89059 46.6601 9.25013 46.284C13.8367 41.4428 23.5053 37.2959 33.7668 34.3063C46.8851 30.4874 61.0917 28.5393 66.854 29.4748C67.3691 29.5616 67.7092 30.0438 67.6314 30.5453C67.544 31.0564 67.0678 31.3939 66.5528 31.3168C61.0237 30.4199 47.1863 32.3487 34.2915 36.1001C24.3119 39.0029 14.9542 42.9858 10.6203 47.5569V47.5666Z" fill="white"/>
<path fill-rule="evenodd" clip-rule="evenodd" d="M13.7176 56.9882C13.3483 57.3547 12.7556 57.3547 12.3863 56.9882C12.0171 56.6218 12.0171 56.0335 12.3863 55.6671C15.8651 52.1856 24.9993 48.5596 34.8526 45.5603C49.4674 41.1242 65.8993 38.0864 67.7844 38.9736C68.2509 39.1954 68.4549 39.7548 68.2314 40.2177C68.0079 40.6806 67.4443 40.8831 66.9779 40.6613C65.3746 39.9091 49.6617 43.0144 35.3968 47.3444C25.7961 50.2569 16.9437 53.7383 13.7176 56.9786V56.9882Z" fill="white"/>
<path fill-rule="evenodd" clip-rule="evenodd" d="M22.3561 66.3334C21.9965 66.6998 21.394 66.7095 21.0248 66.3527C20.6458 65.9958 20.6361 65.3979 21.0054 65.0315C23.3958 62.5819 28.6528 60.2964 35.0371 58.3194C43.1218 55.8023 53.1112 53.7289 61.3126 52.3981C61.8276 52.3113 62.3134 52.6585 62.3912 53.1696C62.4689 53.6807 62.1288 54.1629 61.6138 54.24C53.5096 55.5612 43.6174 57.6154 35.6007 60.1035C29.4885 62.0033 24.5036 64.1346 22.3658 66.3334H22.3561Z" fill="white"/>
</svg>
