<svg width="78" height="65" viewBox="0 0 78 65" fill="none" xmlns="http://www.w3.org/2000/svg">
<path fill-rule="evenodd" clip-rule="evenodd" d="M60.7117 47.7409C60.4157 47.2632 59.783 47.1209 59.3033 47.4258C58.8236 47.7308 58.691 48.3508 58.9869 48.8286C59.9258 50.3126 61.2832 51.8068 62.9263 52.7013L62.9977 52.7318C64.3653 53.4535 65.9268 53.7585 67.6005 53.3214C72.2645 52.1016 74.8056 54.8258 74.8056 54.8359C75.1935 55.2425 75.8466 55.2628 76.2548 54.8766C76.6631 54.4903 76.6835 53.8398 76.2957 53.4332C76.2957 53.4332 72.9278 49.8247 67.08 51.3494C65.9574 51.6442 64.896 51.4307 63.9571 50.9428L63.8958 50.9022C62.5895 50.2008 61.4873 48.9607 60.7117 47.7409Z" fill="#033B62"/>
<path fill-rule="evenodd" clip-rule="evenodd" d="M70.2154 51.3901C69.6541 51.4206 69.2152 51.8983 69.2458 52.4574C69.2458 52.5895 69.2867 52.7217 69.3377 52.8437C68.1743 52.3964 67.317 52.0406 67.3068 52.0305C66.8578 51.8475 66.3577 52 66.0821 52.3659L65.5718 51.6849C65.2249 51.2376 64.5819 51.1563 64.1328 51.5019C63.6838 51.8475 63.6021 52.4879 63.9491 52.9351C63.9695 52.9656 72.4402 63.7199 72.7668 58.5664C72.828 57.6414 72.3892 56.6961 71.736 55.8219C73.2873 56.3098 74.7875 56.6758 75.604 56.5843C76.4817 56.4928 77.0429 56.2285 77.3389 55.8524C77.7879 55.2832 77.7369 54.6835 77.2981 54.0939C77.0736 53.789 76.7164 53.484 76.2775 53.1994C74.8181 52.2541 71.9912 51.2884 70.2052 51.3799L70.2154 51.3901ZM70.9706 53.4434C72.032 53.5552 73.3383 53.9719 74.3589 54.47C73.4302 54.2769 72.1749 53.8703 70.9706 53.4434ZM68.0722 54.9986C69.3275 55.9541 70.8073 57.3365 70.7359 58.4444C70.7359 58.5054 69.3888 56.7469 68.0722 54.9986Z" fill="#033B62"/>
<path fill-rule="evenodd" clip-rule="evenodd" d="M54.2227 10.5787C52.8347 10.4567 51.5998 11.5443 51.4671 12.9979C51.3345 14.4616 52.3448 15.7525 53.7328 15.8847C55.1207 16.0168 56.3556 14.919 56.4883 13.4655C56.621 12.0017 55.6106 10.7108 54.2227 10.5787Z" fill="#033B62"/>
<path fill-rule="evenodd" clip-rule="evenodd" d="M74.9921 9.44014C73.9715 9.31816 70.767 9.66376 69.0626 9.55194C68.4095 9.55194 65.705 8.87091 65.705 8.23053C65.705 7.57999 68.4095 7.22422 69.0626 7.22422C70.2669 7.1429 71.8182 6.92944 73.2163 6.92944C74.5227 6.92944 75.6963 7.1429 76.4515 7.49867C77.37 7.93575 77.8701 8.60663 77.9823 9.44014C78.064 10.0907 77.8803 10.975 77.0537 12.0423C76.2984 12.9775 75.7167 13.7805 75.1962 14.4005C73.8083 16.0269 73.2163 16.6165 73.2163 16.6165C72.9714 17.0332 72.4305 17.1653 72.0223 16.9214C71.6039 16.6774 71.0935 16.3318 71.3385 15.9151C72.4203 14.1972 74.2267 12.0728 75.6555 10.0094C76.0841 9.41981 75.8086 9.54178 75.0023 9.4503L74.9921 9.44014Z" fill="#033B62"/>
<path fill-rule="evenodd" clip-rule="evenodd" d="M73.5022 18.4055C75.0738 25.4293 73.9002 33.6932 68.8383 41.7641C64.705 48.3102 58.6326 50.7599 52.2949 50.9835C40.9156 51.3698 28.6587 44.3357 25.7296 41.5201C24.3825 40.219 24.6683 39.1517 25.0357 38.6435C25.301 38.2979 25.8725 37.9014 26.8216 37.8303C28.5566 37.688 32.7205 38.4504 36.2211 38.0641C37.8744 37.8811 39.395 37.4949 40.14 36.3056C40.5585 35.6347 40.6911 34.7402 40.538 33.5611C39.5787 26.4356 37.7111 21.028 37.4151 16.3928C37.2314 13.567 37.5988 11.0055 38.9459 8.52531C40.6095 5.47588 43.2833 2.57893 46.9063 1.1152C58.4285 -3.53009 70.961 7.13274 73.5022 18.3953V18.4055ZM29.1077 40.6663C33.2512 43.6242 43.0486 48.4626 52.203 48.1475C57.6528 47.9646 62.8781 45.8808 66.4399 40.2597C71.1141 32.9309 72.2571 25.409 70.8794 18.9747C68.8383 9.42997 57.857 -1.44631 47.7024 3.00585C44.6101 4.35776 42.3853 6.92944 41.0177 9.61294C39.9359 11.7069 39.7216 13.8516 39.9257 16.2099C40.3033 20.8043 42.1913 26.1205 43.2221 33.185C43.7426 36.7935 42.273 38.7756 40.0175 39.8632C37.0681 41.2965 32.3429 40.8899 29.1486 40.6561H29.1077V40.6663Z" fill="#033B62"/>
<path fill-rule="evenodd" clip-rule="evenodd" d="M28.2276 39.4668C28.0745 39.975 27.7786 40.2291 27.5132 40.3816C27.0948 40.6256 26.5233 40.6256 25.8701 40.158C25.4313 39.8327 24.8495 39.1212 24.2066 38.0945C23.1044 36.3259 21.7164 33.5204 20.3999 30.3185C17.5219 23.3556 14.9399 14.553 15.0522 10.7818C15.093 9.66371 15.2971 8.90136 15.542 8.44394C16.0523 7.50878 16.7973 7.2445 17.6036 7.36648C18.0016 7.42747 18.4812 7.63076 18.9813 8.05768C19.5732 8.57609 20.2877 9.52141 21.0429 10.8428C22.5635 13.506 24.3597 17.8057 25.8089 22.7356C26.5131 25.1243 29.1155 36.4987 28.2276 39.4566V39.4668ZM26.809 38.5011C26.9417 38.6231 27.0642 38.6434 27.156 38.5215C27.1969 38.4808 27.0642 38.5011 27.0336 38.5011C26.9621 38.4808 26.8805 38.491 26.809 38.5011ZM17.8791 11.1274C17.8791 13.6178 19.0324 18.1106 20.5326 22.7661C21.3082 25.1853 22.1961 27.6248 23.0636 29.8712C23.7167 31.5789 24.3495 33.1545 24.9516 34.5064C25.4925 35.7261 26.013 37.139 26.4416 37.9421C26.6049 33.6424 23.2575 23.4471 21.7675 19.4625C20.7163 16.6469 19.6549 14.2074 18.6752 12.459C18.3894 11.9508 18.1241 11.5035 17.8689 11.1274H17.8791Z" fill="#033B62"/>
<path fill-rule="evenodd" clip-rule="evenodd" d="M25.3395 35.8988C26.901 37.5557 27.6357 38.6941 27.8296 39.3243C27.9827 39.8326 27.8807 40.2188 27.748 40.4933C27.5337 40.9202 27.0642 41.2455 26.258 41.2048C25.7171 41.1845 24.8292 40.91 23.7168 40.4018C21.8185 39.5378 19.1038 37.9724 16.2258 36.0411C9.94937 31.8329 2.90753 25.9272 0.897018 22.7253C0.305092 21.7698 0.0499565 21.0278 0.00913395 20.5094C-0.0827167 19.4522 0.386707 18.8119 1.12151 18.4764C1.48891 18.3036 1.9992 18.2121 2.65236 18.2934C3.42798 18.3951 4.56083 18.7915 5.92838 19.4726C8.6839 20.855 12.562 23.4368 16.5218 26.7403C19.6652 29.373 22.8391 32.4733 25.5742 35.7057L25.3497 35.8988H25.3395ZM26.1151 39.304C26.2886 39.3345 26.4009 39.2938 26.4213 39.1312C26.4213 39.0804 26.3396 39.1719 26.2988 39.182C26.2273 39.2125 26.1661 39.2532 26.1151 39.304ZM3.44843 21.4547C4.82618 23.5385 8.29611 26.6286 12.1334 29.678C14.1235 31.2535 16.2259 32.7985 18.1956 34.1911C19.6856 35.2483 21.0939 36.2139 22.3492 37.0068C23.482 37.7183 24.6965 38.6128 25.5028 39.0499C25.1864 38.5416 24.6965 37.8708 24.0229 37.0373L23.7984 37.2304C20.0326 33.0527 15.4094 29.1901 11.3271 26.2423C8.87779 24.4736 6.64278 23.0404 4.84659 22.1154C4.3261 21.8511 3.85664 21.6173 3.43821 21.4445L3.44843 21.4547Z" fill="#033B62"/>
<path fill-rule="evenodd" clip-rule="evenodd" d="M52.0405 46.084C52.4079 45.6571 52.3569 45.0167 51.9283 44.6508C51.4997 44.2849 50.8567 44.3357 50.4893 44.7626C48.1624 47.4868 44.7231 49.5299 44.7129 49.54C44.2741 49.8043 44.1107 50.3532 44.3047 50.8208C44.4169 51.0749 48.3665 60.3655 54.4082 58.7798C59.1335 57.5397 61.7767 59.8471 61.7869 59.8471C62.2053 60.2232 62.8585 60.1825 63.2259 59.7556C63.6035 59.3389 63.5627 58.6883 63.134 58.3224C63.134 58.3224 59.6641 55.2933 53.8878 56.8078C50.3566 57.7328 47.5194 52.7623 46.5499 50.7903C47.7644 49.9771 50.1933 48.2389 52.0303 46.084H52.0405Z" fill="#033B62"/>
<path fill-rule="evenodd" clip-rule="evenodd" d="M57.131 56.3402C56.5696 56.3707 56.1308 56.8484 56.1614 57.4075C56.1614 57.5396 56.2023 57.6718 56.2533 57.7937C55.0898 57.3465 54.2326 56.9907 54.2224 56.9805C53.7019 56.7671 53.0998 57.011 52.8854 57.5295C52.8548 57.6006 52.8344 57.6718 52.8242 57.7327L52.7426 57.6413C52.3751 57.2143 51.7322 57.1635 51.3035 57.5295C50.8749 57.8954 50.8239 58.5358 51.1913 58.9627C51.2117 58.9932 59.366 68.5989 59.6926 63.5165C59.7538 62.5915 59.3048 61.6462 58.6618 60.772C60.2131 61.2599 61.7133 61.6259 62.5297 61.5344C63.4074 61.4429 63.9687 61.1786 64.2647 60.8025C64.7137 60.2333 64.6627 59.6336 64.2239 59.044C63.9994 58.7391 63.6422 58.4341 63.2033 58.1495C61.7337 57.2042 58.9169 56.2385 57.131 56.33V56.3402ZM57.8862 58.3935C58.9475 58.4951 60.2539 58.922 61.2744 59.4099C60.3457 59.2168 59.0904 58.8102 57.8862 58.3935ZM54.2427 59.4099C55.5491 60.3146 57.7433 62.0528 57.6617 63.3945C57.6617 63.425 55.6919 61.1075 54.2427 59.4099Z" fill="#033B62"/>
<path fill-rule="evenodd" clip-rule="evenodd" d="M48.9784 21.2417C48.6007 20.9876 48.1007 21.0791 47.8353 21.4552C47.5802 21.8313 47.6721 22.3293 48.0497 22.5835C49.4785 23.5593 50.7439 24.7791 51.7747 26.131C53.2239 28.0318 54.2036 30.1969 54.4996 32.3315C54.7955 34.4152 54.4281 36.4584 53.2341 38.1965C52.7442 38.9081 52.1115 39.5688 51.3256 40.1685C47.0291 43.411 44.6512 43.2687 43.6306 42.913C44.1511 42.0998 47.9782 36.3059 48.0598 35.9806C48.3048 35.6045 48.1925 35.0963 47.8149 34.8523C47.4373 34.6084 46.9372 34.7202 46.6923 35.0963C46.6821 35.1064 42.8958 40.8902 39.6402 41.5712C36.7418 42.1811 36.0581 40.4023 36.0581 40.3921C35.8948 39.9754 35.4151 39.7619 34.9966 39.9245C34.5782 40.0872 34.3639 40.5649 34.5272 40.9817C34.5272 40.9817 35.7008 44.0514 39.9668 43.1569C40.6812 43.0045 41.4058 42.669 42.0998 42.2319L41.7936 42.6995C41.5487 43.035 41.5997 43.5025 41.9059 43.777C41.9059 43.777 45.1716 46.8264 52.285 41.4492C53.2137 40.7479 53.9689 39.955 54.5506 39.1012C55.9998 36.9971 56.4285 34.5474 56.0815 32.0773C55.7447 29.6683 54.6527 27.2389 53.0402 25.1145C51.9073 23.6304 50.5194 22.2887 48.9376 21.2112L48.9784 21.2417Z" fill="#033B62"/>
<path fill-rule="evenodd" clip-rule="evenodd" d="M71.3174 20.1435C71.7358 20.296 72.2155 20.0825 72.3685 19.6658C72.5216 19.249 72.3073 18.7713 71.8889 18.6188C69.7457 17.826 67.3882 18.1716 65.2655 19.1067C62.7141 20.2248 60.4586 22.2171 59.2849 24.0468C58.1113 25.8866 57.999 27.7468 57.8357 30.2879C57.7235 31.9651 57.601 33.9676 57.1213 36.4478C56.9172 37.4744 56.6213 38.3994 56.2334 39.2228C54.4577 43.0041 50.8653 44.8337 47.1403 45.6062C43.3234 46.3991 39.384 46.0941 37.0775 45.6469C36.2917 45.4944 35.7304 45.3318 35.4446 45.1996C35.0364 45.0065 34.5465 45.1895 34.3628 45.5961C34.1689 46.0027 34.3526 46.4906 34.7608 46.6735C35.1589 46.8565 35.863 47.0598 36.7815 47.2428C39.2309 47.7205 43.4254 48.0356 47.4872 47.1919C51.6511 46.3279 55.6926 44.2442 57.7235 39.9038C58.1623 38.9585 58.5093 37.9115 58.7338 36.7527C59.2441 34.1607 59.3768 32.1074 59.4788 30.3794C59.6217 28.0822 59.734 26.405 60.6831 24.9108C61.7036 23.3149 63.6836 21.5767 65.9288 20.5908C67.7046 19.8081 69.6233 19.5133 71.3276 20.1334L71.3174 20.1435Z" fill="#033B62"/>
</svg>
