<svg width="108" height="140" viewBox="0 0 108 140" fill="none" xmlns="http://www.w3.org/2000/svg">
<mask id="mask0_123_36186" style="mask-type:alpha" maskUnits="userSpaceOnUse" x="0" y="0" width="108" height="140">
<rect width="108" height="140" fill="#D9D9D9"/>
</mask>
<g mask="url(#mask0_123_36186)">
<path fill-rule="evenodd" clip-rule="evenodd" d="M54.2515 0.239159C54.0499 0.460337 53.808 0.922791 53.687 1.26461C53.4048 2.0689 52.6992 5.94958 52.296 8.90533C52.0944 10.1721 51.8323 12.1627 51.6508 13.2686C51.3283 15.3798 50.8444 19.3811 50.4614 22.8396C49.7154 29.8168 49.5138 47.491 50.159 52.5781C50.2598 53.4226 50.2396 53.4829 49.8162 53.4226C49.4332 53.3823 49.2316 53.0606 48.8485 51.7537C47.0139 45.621 42.6996 38.0607 33.7081 25.0916C32.3977 23.2417 30.8453 20.9897 30.2405 20.0849C29.5954 19.2002 28.4463 17.5313 27.66 16.4254C25.0593 12.7659 23.9102 11.0568 23.1642 9.62919C22.5393 8.48309 22.3175 8.20159 21.8135 8.16138C20.7248 8.04074 20.0394 9.04607 20.3821 10.2726C20.7652 11.5394 23.9505 16.5058 31.7929 28.0071C39.4941 39.3073 43.8891 46.6062 45.8648 51.3716C46.3487 52.578 46.9333 53.885 47.1349 54.2671C47.4776 54.9507 47.4776 55.011 47.0543 55.9963C46.8123 56.5593 46.5704 57.4239 46.4898 57.9266C46.1874 60.0579 46.3688 60.0579 44.1915 57.9668C37.4378 51.5124 32.1356 47.491 27.1963 45.0379C20.8256 41.8408 14.5558 40.2926 8.99152 40.5138C6.93516 40.5942 6.45131 40.6746 5.52394 41.1773C4.21351 41.8408 3.36678 42.806 2.47972 44.5955C1.73379 46.1438 0.806414 48.9186 0.645131 50.2456C0.58465 50.7684 0.483848 51.5526 0.403207 51.9547C0.0604807 54.2872 0.0403208 55.3528 0.342726 55.3528C0.58465 55.3528 0.58465 55.393 0.322565 55.574C0.0403204 55.7349 0 56.4788 0 60.078C0 65.3662 0.141122 67.0753 1.08866 73.0069C2.39908 81.271 6.06827 93.657 8.68911 98.6435C10.2616 101.619 13.1042 105.017 14.9187 106.083C16.1888 106.827 18.1443 107.269 19.9587 107.229C22.0151 107.209 21.9345 107.189 21.4506 107.672C20.5837 108.536 18.6282 112.839 17.0758 117.343C16.2694 119.655 14.838 126.009 14.1727 130.071C13.8502 132.122 14.0316 136.968 14.4953 139.059C15.5436 143.824 18.104 147.906 20.9063 149.273C22.6804 150.138 24.9182 150.238 26.9342 149.535C29.3535 148.71 30.7244 147.765 33.1638 145.352C36.1274 142.397 37.7402 140.125 41.5303 133.55C43.0625 130.875 47.4171 122.209 48.4252 119.836C50.1186 115.795 53.1628 109.421 53.4048 109.421C53.5056 109.421 53.9088 110.688 54.2918 112.236C56.3683 120.5 58.3037 125.145 60.602 127.457C61.5697 128.442 61.8318 128.583 62.5374 128.583C63.5858 128.583 64.4325 127.819 64.6543 126.733C64.7752 126.029 64.6543 120.983 64.3922 117.424C64.1906 114.749 63.868 111.713 63.3237 108.375C63.0414 106.566 62.7592 104.857 62.7189 104.595C62.6785 104.334 62.739 104.133 62.86 104.133C63.1825 104.133 67.7993 108.838 71.1056 112.538C77.2948 119.414 80.9237 122.551 85.0767 124.622C89.3708 126.753 92.2739 127.538 95.7415 127.538C105.237 127.517 110.076 119.716 107.152 109.139C106.709 107.531 104.37 103.188 102.959 101.278C101.205 98.9451 97.5156 95.2856 94.794 93.2146C93.6852 92.3701 92.6772 91.6261 92.5562 91.5859C92.4554 91.5457 91.649 91.0229 90.7821 90.4599L89.2297 89.4144L91.2659 88.7307C93.9876 87.7857 95.3585 86.9613 96.9915 85.2723C99.1285 83.0203 100.661 79.5216 101.245 75.641C101.588 73.2281 101.366 66.8944 100.802 62.7925C100.54 61.0231 100.278 58.9922 100.157 58.2282C99.7736 55.2121 98.8865 50.0446 98.0196 46.003C96.4875 38.7443 94.3908 33.5366 92.0723 31.2042C90.8829 30.0178 89.1894 28.8918 88.1612 28.5701C86.75 28.168 84.3711 28.168 82.7583 28.5701C77.819 29.8771 70.6822 34.8838 65.4203 40.7751C60.5214 46.2845 58.6465 48.7376 56.6909 52.1759C56.0861 53.2215 55.3402 54.7094 54.9974 55.4534C54.4934 56.5995 54.3523 56.7603 54.1709 56.4386C54.0701 56.2376 53.687 55.6343 53.3645 55.0915L52.7395 54.1062V46.2443C52.7798 41.9011 52.8403 37.4374 52.8806 36.3315C52.9209 35.2256 53.0217 32.8127 53.1024 31.0031C53.2435 27.0219 53.5862 22.4374 53.8483 20.6881C53.9491 19.9844 54.0701 18.9187 54.0902 18.3557C54.1104 17.7525 54.2112 17.0487 54.312 16.7672C54.4128 16.4857 54.5338 15.7418 54.5942 15.1788C54.7555 13.6305 55.0781 11.278 55.3603 9.72974C55.4813 8.98577 55.7232 7.29675 55.8845 6.03C56.0861 4.72303 56.3079 3.23511 56.449 2.67211C56.7111 1.54611 56.5901 0.802145 56.0861 0.319574C55.6426 -0.122783 54.6547 -0.102668 54.2313 0.359797L54.2515 0.239159ZM87.9193 31.6465C91.8506 33.4562 94.3101 39.7698 96.689 53.9051C97.2535 57.2831 98.0801 62.7322 98.1406 63.4761C98.7656 70.7951 98.7253 74.3742 97.939 77.3903C97.435 79.4412 96.0641 82.0149 94.8746 83.2213C93.282 84.8902 90.8022 85.8554 86.4879 86.5591C82.597 87.1824 77.3754 86.8406 70.5411 85.4935C68.3839 85.0712 62.6987 84.1865 60.723 83.9653L59.1303 83.8045L58.969 82.5578C58.8682 81.8742 58.8682 81.2307 58.969 81.1302C59.0497 81.0498 60.1988 80.8688 61.4891 80.7482C63.9083 80.5069 66.5292 80.5873 69.6943 80.9492C76.9319 81.7535 78.9681 81.7334 81.4277 80.9291C84.613 79.8836 86.2863 78.5163 87.6572 75.9225C89.1289 73.0874 89.6329 70.2723 89.6128 65.2053C89.5321 56.0164 87.4758 49.7228 83.7058 47.0285C81.9115 45.7818 81.0849 45.5406 78.5447 45.5607C76.6698 45.5607 76.2061 45.6411 74.4925 46.2845C70.9644 47.6317 68.021 50.0043 64.4526 54.448C61.5697 58.0271 60.2391 60.1786 57.8199 64.9641C56.4087 67.7791 56.4893 67.8394 55.8845 63.5968C55.4007 60.3394 55.3805 60.4601 57.6788 56.0566C59.8762 51.9145 61.61 49.4816 65.7832 44.7564C70.5411 39.3878 74.5933 35.9494 79.21 33.3757C83.2824 31.1237 85.7621 30.6009 87.9596 31.6465H87.9193ZM12.7212 43.7912C16.0476 44.1934 18.0032 44.6759 21.1482 45.9025C24.6158 47.2698 28.0229 48.9789 30.805 50.8287C33.3049 52.4976 39.4941 57.3234 42.4779 59.9373C43.4254 60.7617 44.6552 61.8475 45.26 62.3501L46.3083 63.2349L46.5704 66.5927C46.7115 68.4426 46.7922 69.9908 46.772 70.0311C46.7317 70.0512 46.3285 69.8099 45.8648 69.5083C37.6394 63.5365 30.8453 59.5552 26.6318 58.1879C22.4788 56.8408 18.9104 57.0016 16.4912 58.6303C15.584 59.2536 14.0518 61.0834 13.8905 61.767C13.83 62.0686 13.6486 62.4507 13.5074 62.6115C13.1849 62.9935 12.701 64.5217 12.2373 66.5525C10.8664 72.4037 10.9874 79.9841 12.4994 84.1664C13.9308 88.1878 16.5113 91.6664 18.8499 92.732C20.5232 93.4961 22.9022 93.7776 24.8779 93.4559C28.3253 92.8929 30.8857 91.7468 36.0467 88.4492C37.5184 87.4841 40.4013 85.8956 42.4375 84.8701C46.9938 82.6181 47.9413 81.9747 47.9413 81.1101C47.9413 80.6275 47.8204 80.4064 47.4171 80.2254C46.9938 80.0243 46.6107 80.1047 45.2398 80.5672C42.8811 81.3916 37.6595 83.9854 34.2928 86.0163C30.4623 88.3286 28.3051 89.3339 26.0472 89.8768C23.2046 90.5403 21.9143 90.4599 19.8781 89.5149C18.1443 88.7106 16.4307 86.1972 15.2614 82.8996C14.0719 79.4613 13.7292 74.5552 14.3542 69.9707C15.0396 64.9037 16.2694 61.9279 18.1846 60.8019C21.6925 58.7509 26.4907 60.3193 37.0749 66.834C42.1755 69.9908 46.3285 72.6249 46.8728 73.0471C47.2962 73.3688 47.3365 73.6302 48.4453 81.1704C48.9292 84.468 49.0098 84.2669 47.276 85.4935C45.1995 86.9412 43.0222 88.7307 40.4013 91.1436C36.7725 94.4411 33.9097 96.5725 27.4382 100.755C21.1079 104.816 17.7411 105.118 14.5155 101.841C12.6607 99.9706 10.9269 97.1355 9.95921 94.421C9.75761 93.8379 9.37456 92.8325 9.13264 92.1891C8.40687 90.299 7.43917 87.3232 5.92714 82.2964C5.46345 80.7482 4.6772 77.3098 4.19335 74.897C4.05223 74.1128 3.87079 73.4694 3.81031 73.4694C3.74983 73.4694 3.66918 73.1074 3.64902 72.6651C3.62886 72.2428 3.4071 70.1919 3.16517 68.1611C1.85475 57.444 3.66918 45.5204 6.85452 44.0526C8.26574 43.3891 9.11248 43.3489 12.7615 43.7912H12.7212ZM81.5285 48.7577C82.6171 49.3207 83.484 50.2858 84.4517 52.0352C86.0041 54.8099 86.6895 58.2483 86.8911 64.1195C87.0121 68.5029 86.8306 70.2924 85.9436 72.8259C84.9154 75.8219 83.5848 77.2093 80.8632 78.0739C79.2705 78.5766 78.9681 78.6369 76.1658 78.4962C74.5328 78.4359 72.1337 78.2549 70.8233 78.1342C67.7186 77.8125 61.8923 77.9935 59.9569 78.4559C59.1505 78.657 58.4247 78.7375 58.3441 78.657C58.2836 78.5766 58.0013 77.0485 57.7191 75.2991L57.2554 72.1021L57.8804 70.6142C59.2311 67.397 62.9205 61.1035 65.5211 57.645C68.8678 53.1813 71.3878 50.8287 74.4522 49.3207C76.9319 48.1143 79.7544 47.873 81.5083 48.7577H81.5285ZM51.1468 56.7201C51.671 57.1424 52.558 59.6357 52.9209 61.7067C53.0822 62.7523 53.4854 65.4064 53.7677 67.6383C55.5821 81.5122 56.2877 86.0966 58.5658 99.5483C59.3924 104.454 60.1383 108.757 60.1787 109.119C60.602 111.894 60.7431 112.92 61.0859 115.815C61.5294 119.354 61.8721 124.079 61.6907 123.898C61.2673 123.496 59.9367 120.339 59.1102 117.765C57.6989 113.342 55.7232 105.842 55.6829 104.736C55.6627 104.213 55.5619 103.59 55.4208 103.349C55.2998 103.107 55.0378 102.042 54.816 101.016C54.6144 99.9505 54.3322 98.4826 54.1709 97.7186C52.8201 91.6462 50.0582 73.027 49.4735 66.1303C49.0905 61.8474 49.3727 57.8461 50.1186 56.6397C50.2799 56.3582 50.7234 56.3984 51.1267 56.7L51.1468 56.7201ZM60.9448 86.6999C61.5899 86.8004 62.5777 87.0015 63.1624 87.102C63.7672 87.2025 65.6219 87.5846 67.3154 87.9465C71.2064 88.7709 74.1901 89.354 75.4199 89.535C76.2263 89.6557 76.6295 89.917 78.0811 91.3245C79.0286 92.2092 80.9035 93.9384 82.2341 95.1449C85.5605 98.1408 88.7257 101.338 90.1571 103.148C93.3021 107.089 94.6529 110.849 93.4432 112.196C93.04 112.638 92.6368 112.678 91.2054 112.337C90.4595 112.176 88.7257 111.11 82.3147 106.807C78.5851 104.314 74.7143 101.8 73.7264 101.217C71.7507 100.031 65.1986 96.4518 62.6181 95.1449C61.5294 94.6087 60.9313 93.9988 60.8238 93.3152C60.7431 92.7522 60.5012 91.3849 60.2996 90.279C59.7755 87.5645 59.594 86.4586 59.715 86.4586C59.7553 86.4586 60.3399 86.5591 60.9448 86.6999ZM49.5138 88.3084C49.5945 88.8915 49.7961 90.098 49.9574 91.0229C50.1186 91.968 50.4412 93.8178 50.6831 95.1248C50.9251 96.4519 51.1871 97.6985 51.3283 97.9398C51.6508 98.543 51.3283 99.1462 49.7356 100.916C47.0139 103.912 40.1796 112.598 37.1555 116.881C34.3129 120.882 29.4946 126.934 28.1439 128.181C26.8737 129.367 26.2488 129.629 25.7448 129.146C25.2609 128.663 25.3416 125.708 25.8859 122.933C26.7125 118.952 28.789 111.371 29.3938 110.205C30.0389 108.979 31.4905 103.831 31.4905 102.765C31.5106 102.182 31.6921 101.981 33.0428 101.097C35.4621 99.5484 40.6634 95.165 43.627 92.2294C46.6914 89.153 48.7679 87.3232 49.1308 87.3232C49.2517 87.3232 49.4533 87.7656 49.5138 88.3286V88.3084ZM86.3669 90.6208C89.9555 92.4304 93.3828 95.0042 97.2132 98.7843C100.439 101.981 101.608 103.509 103.04 106.385C104.632 109.602 105.156 111.593 105.177 114.749C105.197 116.82 105.116 117.665 104.814 118.57C103.967 121.083 102.273 122.832 99.7937 123.737C98.7656 124.119 98.1003 124.18 95.802 124.18C93.3223 124.18 92.8384 124.119 91.2256 123.576C84.996 121.505 80.8833 118.429 73.6256 110.366C70.3798 106.767 66.0252 102.585 63.9285 100.976C62.0334 99.5685 61.6907 99.0859 61.8318 98.1409C61.8923 97.7186 62.0536 97.7789 64.1301 98.9853C72.6176 103.972 73.424 104.475 81.2462 109.702C84.5727 111.914 87.9596 114.066 88.7862 114.488C90.1773 115.192 90.399 115.232 92.2336 115.232C94.169 115.232 94.1892 115.232 94.9553 114.488C96.427 113.08 96.9511 111.432 96.5681 109.562C96.2052 107.893 94.4311 104.414 92.9594 102.484C91.3869 100.373 86.4476 95.547 82.8187 92.531L80.0971 90.279L81.972 90.1985C83.0002 90.1784 84.1695 90.1181 84.5525 90.098C84.9557 90.0779 85.7218 90.2991 86.3669 90.6007V90.6208ZM52.2758 103.509C52.3968 104.615 52.3766 104.696 50.9654 107.189C49.3929 110.004 48.1429 112.558 45.6229 118.047C41.2481 127.658 35.3411 137.953 32.055 141.653C28.6075 145.574 25.2004 147.283 22.6199 146.438C20.6644 145.795 18.487 142.477 17.479 138.596C16.6323 135.339 16.6928 131.519 17.6806 126.834C18.0032 125.346 18.9911 121.244 19.3741 119.857C19.616 118.992 19.8176 118.107 19.8378 117.946C19.8579 117.786 19.9789 117.343 20.1402 117.042C20.2612 116.7 20.3821 116.358 20.3821 116.277C20.3821 115.956 22.2772 111.412 23.0231 109.924C23.9707 108.074 25.1198 106.244 25.6036 105.842C26.1278 105.4 28.9906 103.731 29.0712 103.811C29.1115 103.851 28.2447 106.023 27.1358 108.637C24.8779 113.965 23.8699 117.223 22.5998 123.697C22.1764 125.848 22.2772 128.865 22.8417 130.212C23.7287 132.464 26.4705 133.389 28.4059 132.082C30.7244 130.533 34.3129 126.231 39.3732 118.912C40.5626 117.142 42.2561 114.81 43.0827 113.704C45.5422 110.426 49.2719 105.54 49.4937 105.279C49.5945 105.138 50.1993 104.454 50.7638 103.751C51.3686 103.027 51.8927 102.444 51.9734 102.444C52.054 102.424 52.175 102.926 52.2556 103.53L52.2758 103.509ZM78.6254 116.237C78.6254 116.338 78.5246 116.458 78.3834 116.458C78.2826 116.458 78.2423 116.358 78.3028 116.237C78.3633 116.117 78.4641 116.016 78.5447 116.016C78.5851 116.016 78.6254 116.097 78.6254 116.237Z" fill="#033B62"/>
</g>
</svg>
