<svg width="105" height="130" viewBox="0 0 105 130" fill="none" xmlns="http://www.w3.org/2000/svg">
<path fill-rule="evenodd" clip-rule="evenodd" d="M2.44066 2.79669C16.0262 -0.0557662 26.7552 -0.400038 34.9065 0.327831C49.6664 1.64586 56.2054 6.43603 56.2054 6.43603C56.3846 6.5639 56.5438 6.73111 56.6633 6.92783C59.7188 12.0229 61.978 18.4557 63.7496 25.6458C65.9492 34.5475 67.4222 44.6196 68.8852 54.7016C69.0146 55.5966 68.3975 56.413 67.5018 56.5606C58.8031 57.9475 49.8157 58.9409 40.5199 58.6852C35.444 58.5475 16.3447 56.0294 12.7318 53.4819C12.2939 53.1573 11.7963 52.7442 11.1692 51.613C9.09906 47.8065 5.90426 38.6294 3.48574 29.3147C1.43548 21.4557 -0.0574356 13.518 0.0022809 8.68848C0.0221864 6.96717 0.251083 5.59996 0.669098 4.71472C1.10702 3.8098 1.73402 3.28849 2.51033 3.13111L2.43075 2.78684L2.44066 2.79669ZM14.5532 51.0819C14.6129 51.0819 14.6726 51.1114 14.7323 51.1311C23.6301 54.0425 32.2492 55.2524 40.5896 55.4491C49.1091 55.6557 57.35 54.7901 65.3321 53.5606C63.9586 44.1278 63.1027 35.3442 61.0424 27.0032C59.3903 20.3147 56.7727 13.7245 53.966 8.92455C52.6622 8.09832 46.5512 4.63602 34.598 3.44586C26.6756 2.65897 16.2352 2.86553 2.99801 5.46225L2.92839 5.12783C2.74924 5.16718 2.64966 5.34422 2.56008 5.57045C2.41079 5.89504 2.33118 6.29831 2.26151 6.78028C1.92312 9.35733 2.54023 13.695 3.60517 18.6819C5.94407 29.5803 10.5721 43.518 13.4683 49.2721C13.8266 49.9803 14.3143 50.7278 14.5532 51.0819Z" fill="#033B62"/>
<path fill-rule="evenodd" clip-rule="evenodd" d="M68.2079 55.5278C76.3492 57.0032 82.0323 58.2327 85.6949 60.0327C88.9295 61.6163 90.7309 63.6622 91.4475 66.4655C91.9949 68.5999 91.8556 71.2557 91.0594 74.6491C90.0741 78.8491 88.0637 84.2589 85.2868 91.3999C82.4802 98.5704 80.5195 104.679 80.619 110.305C80.6986 115.361 81.6739 121.459 83.7342 124.38C87.4266 129.613 94.9709 129.102 103.381 123.564C103.849 123.239 104.496 123.357 104.814 123.82C105.143 124.282 105.023 124.921 104.555 125.236C94.7917 132.298 86.7399 130.961 82.1517 124.813C79.6934 121.528 79.6237 116.787 79.4844 110.984C79.3351 105.003 80.3701 97.872 83.3162 90.2393C86.0233 83.2753 88.203 77.4721 89.1684 73.3901C89.8253 70.636 90.0243 68.4819 89.5963 66.7409C89.1186 64.8131 87.8148 63.4753 85.6053 62.3442C82.1517 60.5639 76.1104 58.5868 68.387 57.0032C67.6306 56.8557 66.4263 57.3573 66.5756 56.6196C66.715 55.8819 67.4515 55.3901 68.1979 55.5376L68.2079 55.5278Z" fill="#033B62"/>
<path fill-rule="evenodd" clip-rule="evenodd" d="M83.4139 94.8228C98.6615 105.052 97.3079 115.37 92.6202 114.859C89.6244 114.534 85.0163 109.764 82.0503 98.0589C75.8398 105.446 71.4805 109.488 68.5345 110.315C65.698 111.101 64.0856 108.898 67.3799 105.072C70.316 101.688 78.0095 97.3802 82.0603 93.9572C83.792 92.9244 82.3091 94.0556 83.4039 94.8228H83.4139ZM83.4537 96.5048C84.0409 98.3244 86.2006 103.98 87.9622 107.462C88.6689 108.829 89.4054 110.098 90.1917 111.042C93.2472 114.751 94.8894 111.711 92.4808 107.393C90.5201 103.892 86.539 98.4228 83.4537 96.495V96.5048ZM80.9655 96.5441C78.756 98.0195 74.6952 100.823 71.5004 103.626C65.1705 109.164 67.788 110.934 73.69 105.662C79.6219 100.823 80.8162 96.7507 80.9754 96.5441H80.9655Z" fill="#033B62"/>
<path fill-rule="evenodd" clip-rule="evenodd" d="M91.6756 71.246C106.923 81.4755 105.57 91.7935 100.882 91.282C97.8861 90.9574 93.278 86.1869 90.3121 74.482C84.1016 81.8689 79.7422 85.9115 76.7962 86.7279C73.9597 87.5148 72.3473 85.3115 75.6516 81.4853C78.5877 78.1017 86.2812 73.7935 90.3319 70.3706C92.0637 69.3378 90.5808 70.4689 91.6756 71.2361V71.246ZM91.7154 72.9279C92.3026 74.7476 94.4624 80.4033 96.234 83.8853C96.9307 85.2525 97.6771 86.5214 98.4634 87.4656C101.519 91.1837 103.161 88.1443 100.752 83.8165C98.7918 80.3148 94.8107 74.8361 91.7253 72.9181L91.7154 72.9279ZM89.2272 72.9575C87.0177 74.4329 82.957 77.2361 79.7621 80.0394C73.4322 85.5771 76.0498 87.3476 81.9517 82.0755C87.8836 77.2361 89.0779 73.164 89.2372 72.9575H89.2272Z" fill="#033B62"/>
<path fill-rule="evenodd" clip-rule="evenodd" d="M67.2221 54.6226C82.4398 44.3538 91.666 49.3702 89.4665 53.4915C88.0631 56.1275 81.8825 58.6161 69.78 57.0521C74.4478 65.4718 76.6673 70.9603 76.3587 73.9702C76.0701 76.8718 73.3928 77.5406 71.0041 73.1046C68.8941 69.1702 67.6501 60.5144 65.9183 55.5276C65.5799 53.5603 66.1074 55.3308 67.2221 54.6128V54.6226ZM68.8245 55.1931C70.7553 55.321 76.8763 55.4095 80.7977 55.0653C82.3503 54.9177 83.8133 54.7013 84.9877 54.3276C89.6058 52.8817 87.3466 50.2554 82.4 50.8849C78.3791 51.4062 71.7705 53.0587 68.8344 55.1931H68.8245ZM67.9486 57.4948C68.5259 60.062 69.6804 64.8226 71.1435 68.7964C74.0397 76.6456 76.6672 74.8849 73.8606 67.5275C71.4719 60.3079 68.088 57.7112 67.9486 57.4948Z" fill="#033B62"/>
<path fill-rule="evenodd" clip-rule="evenodd" d="M1.87495 3.65208C1.46689 3.31765 0.859782 3.36683 0.521389 3.77011C0.182996 4.17339 0.232755 4.77339 0.640817 5.10781C7.32906 10.6357 66.9461 56.216 67.1153 56.3537C67.5333 56.6783 68.1404 56.5996 68.4688 56.1865C68.7973 55.7734 68.7176 55.1734 68.2996 54.8488C68.1304 54.7209 8.53334 9.15044 1.87495 3.65208Z" fill="#033B62"/>
<path fill-rule="evenodd" clip-rule="evenodd" d="M56.0156 8.44262C56.4933 8.2164 56.7024 7.64591 56.4834 7.17378C56.2545 6.69181 55.6772 6.49509 55.1995 6.71148C23.49 21.3377 13.4178 54.0524 13.388 54.1508C13.2287 54.6524 13.5074 55.1836 14.025 55.3508C14.5326 55.5082 15.08 55.2327 15.2392 54.7213C15.2691 54.6327 25.1024 22.7049 56.0355 8.44262H56.0156Z" fill="#033B62"/>
<path fill-rule="evenodd" clip-rule="evenodd" d="M56.2059 6.64272C55.7083 6.81977 55.4495 7.37059 55.6287 7.86239C55.8078 8.3542 56.3652 8.61977 56.8628 8.43289C63.4316 6.10174 64.6359 6.67223 70.508 9.446C71.3441 9.83944 72.2697 10.2821 73.3147 10.7542C82.6106 15.023 86.0044 11.6788 88.4031 9.31813L88.4429 9.27879C88.8211 8.90502 88.8211 8.30502 88.4429 7.93125C88.0647 7.55748 87.4576 7.55748 87.0794 7.93125L87.0395 7.97059C85.039 9.9378 82.2025 12.7312 74.1209 9.02306C73.0958 8.55093 72.1702 8.11813 71.3341 7.72469C64.8549 4.66568 63.5312 4.03616 56.196 6.64272H56.2059Z" fill="#033B62"/>
<path fill-rule="evenodd" clip-rule="evenodd" d="M55.546 7.47846C55.0285 7.59649 54.71 8.1178 54.8294 8.62928C54.9489 9.14075 55.4763 9.45551 55.9939 9.33748C58.3228 8.78666 61.7565 9.23912 65.2301 10.8522C68.1562 12.2194 71.0922 14.4031 73.3913 17.5211C79.0644 25.2129 95.1779 21.1309 95.2177 21.1211C95.7352 20.9932 96.0537 20.4719 95.9243 19.9604C95.7949 19.4489 95.2674 19.1342 94.7499 19.2621C94.7101 19.2719 79.8407 23.0391 74.9539 16.3998C72.4458 12.9965 69.251 10.6162 66.0561 9.13093C62.1746 7.33093 58.2631 6.84895 55.5559 7.47846H55.546Z" fill="#033B62"/>
<path fill-rule="evenodd" clip-rule="evenodd" d="M15.5982 52.6459C15.5982 52.1148 15.1504 51.7017 14.6229 51.7017C14.0854 51.7017 13.6674 52.1443 13.6774 52.6656C13.7669 60.3574 14.8219 61.3705 19.9774 66.2984C20.5945 66.8885 21.2812 67.5475 22.177 68.423C28.5069 74.6197 26.8548 78.2098 25.6804 80.7475L25.6605 80.7869C25.4415 81.2688 25.6604 81.8295 26.1382 82.0459C26.6259 82.2623 27.1932 82.0459 27.4121 81.5738L27.4321 81.5246C28.8354 78.4852 30.816 74.177 23.5306 67.0459C22.804 66.3279 22.0178 65.5803 21.3111 64.9016C16.6333 60.4262 15.6779 59.5115 15.5883 52.6066L15.5982 52.6459Z" fill="#033B62"/>
<path fill-rule="evenodd" clip-rule="evenodd" d="M16.1576 51.5341C16.0879 51.0128 15.6102 50.639 15.0827 50.7079C14.5552 50.7767 14.177 51.2587 14.2467 51.78C14.5851 54.5144 16.4064 57.9669 19.4719 60.9275C21.9999 63.3767 25.3738 65.5013 29.4644 66.6325C37.4664 68.8456 39.0787 83.9243 39.0887 83.9734C39.1484 84.4947 39.6261 84.8784 40.1536 84.8193C40.6811 84.7603 41.0693 84.2882 41.0096 83.7669C41.0096 83.7177 39.2579 67.3702 29.9919 64.7931C26.2297 63.7505 23.1345 61.803 20.8254 59.5603C18.0884 56.9046 16.4661 53.8849 16.1675 51.5341H16.1576Z" fill="#033B62"/>
</svg>
