<svg width="130" height="66" viewBox="0 0 130 66" fill="none" xmlns="http://www.w3.org/2000/svg">
<path fill-rule="evenodd" clip-rule="evenodd" d="M63.4947 0.968241C57.2138 5.01057 48.4342 12.3023 44.7395 16.7024C43.6214 18.037 42.8436 19.2168 42.4839 20.1258C42.1047 21.0929 41.1033 21.9729 41.356 22.5531C41.6769 23.2978 43.4173 23.8393 44.759 23.9264L52.9747 24.6613C45.916 24.3712 40.024 24.1971 36.2808 24.1875C30.1944 24.1585 30.1457 23.733 23.9718 27.0016C15.9603 31.2374 4.59441 38.7515 2.53319 40.879C1.31785 42.1459 0.53031 43.316 0.20946 44.2928C-0.140558 45.3372 -0.0336058 46.2463 0.394194 47.0006C0.938667 47.9289 2.22207 48.7703 4.62359 48.9444C8.86269 49.2442 21.1425 47.9966 36.4266 46.0238C36.4072 46.0818 36.3975 46.1399 36.3877 46.1979C35.5613 50.8882 34.6279 54.9015 34.2584 57.9478C33.9376 60.5588 34.1029 62.5703 34.8029 63.8468C35.571 65.2587 36.903 66.0808 39.1587 65.9937C40.9866 65.926 43.6214 65.1524 47.2966 63.4987C50.4662 62.0481 55.8234 59.9012 62.2502 57.3868C73.0716 53.1608 86.9556 47.987 98.7104 43.5675C101.258 42.6004 103.708 41.672 105.993 40.7823C111.554 38.6354 122.92 33.1135 128.666 32.1658C129.473 32.0304 130.037 31.3341 129.998 30.5218C129.979 30.1156 129.804 29.7481 129.541 29.4773C129.463 29.0228 129.181 28.5973 128.754 28.3555C128.754 28.3555 116.542 21.47 102.687 14.6425C96.7464 11.7123 90.5141 8.81114 84.8263 6.42249C78.3218 3.69537 72.4493 0.881205 68.5991 0.242942C66.2559 -0.143884 65.3225 -0.182563 63.4947 0.987586V0.968241ZM37.5447 58.2475L106.537 36.4789C106.936 36.3532 107.189 35.9954 107.198 35.5989C110.757 35.038 113.995 34.5254 116.814 34.0709C113.382 35.2217 108.559 36.856 103.018 38.7902C97.1839 40.8307 90.5725 43.2483 83.9027 45.7047C68.3172 51.4491 52.4886 57.5416 45.9452 60.5298C42.8145 61.9804 40.5879 62.7444 39.0323 62.8217C38.3031 62.8604 37.7975 62.7831 37.535 62.3286C37.0391 61.4582 37.078 60.0753 37.2531 58.2862C37.3503 58.2862 37.4572 58.2765 37.5545 58.2379L37.5447 58.2475ZM37.4864 56.3037C37.8656 53.5959 38.4976 50.3273 39.0517 46.6234C39.1101 46.2946 39.042 45.9658 38.8767 45.7047C39.9754 45.5596 41.0838 45.4146 42.2019 45.2598C60.539 42.7938 82.0554 39.5348 99.041 36.8851L37.4864 56.3037ZM3.09711 45.4533C3.16517 45.2695 3.43741 44.5732 3.78743 44.08C5.1 42.3103 7.69597 40.1247 10.9434 37.8618C18.809 32.3785 25.401 29.9899 30.2527 27.4949C33.1306 26.0152 38.867 26.3634 51.5066 26.992C62.5224 27.6496 76.7079 28.6457 89.9016 29.5547C98.9729 30.1736 107.558 30.7635 114.306 31.2181C96.9409 33.9548 66.4504 38.6741 41.7547 42.0299C24.1468 44.4185 9.52383 46.1495 4.82775 45.8498C4.2055 45.8111 3.70965 45.7337 3.33046 45.579C3.25268 45.55 3.14573 45.4919 3.08739 45.4533H3.09711ZM45.5563 20.8608L45.6049 20.7544C45.8771 20.2612 46.2563 19.7003 46.7424 19.0814C48.6481 16.6347 51.9441 13.4434 55.5318 10.4165C59.4986 7.07043 63.5433 2.18675 68.2977 3.08612C72.0118 3.81142 77.5537 5.98732 83.786 8.80148C89.3668 11.3158 95.4825 14.3428 101.336 17.331C108.725 21.1025 115.677 24.8258 120.509 27.4465C109.162 26.4117 87.2862 24.4099 69.9408 22.8916C58.1666 21.8569 48.4633 21.0542 45.5563 20.8608Z" fill="#033B62"/>
</svg>
