<svg width="80" height="62" viewBox="0 0 80 62" fill="none" xmlns="http://www.w3.org/2000/svg">
<path fill-rule="evenodd" clip-rule="evenodd" d="M39.9328 23.9232C33.0797 11.4727 24.9351 6.57728 17.976 6.41346C7.85539 6.17254 -0.318192 15.7995 0.00952218 28.25C0.221572 35.6027 5.52283 42.0882 12.5108 47.3016C24.9929 56.6009 42.7087 61.93 42.7087 61.93C43.0943 62.0456 43.5087 62.0167 43.8846 61.8529C43.8846 61.8529 61.6487 53.7099 72.1934 40.45C77.35 33.9645 80.7814 26.2745 79.8464 17.7654C78.3525 4.54395 71.4126 -0.177993 63.8559 0.00510282C50.3715 0.342384 43.3931 10.5957 40.5979 22.2753C40.4533 22.8824 40.1834 23.451 39.9328 23.9424V23.9232ZM24.2796 21.3695C19.4699 21.6104 15.4121 25.4458 14.3711 30.929C13.6 34.9956 17.9181 39.5827 20.5784 42.1171C28.8676 50.0288 41.9376 57.767 41.9376 57.767C42.0822 57.8537 42.2461 57.9115 42.4003 57.9501L41.9955 58.1428C38.8533 57.1406 25.2146 52.5728 14.506 44.5937C8.40478 40.0549 3.52763 34.562 3.33486 28.144C2.98786 17.7268 9.44576 9.40081 17.9085 9.51645C24.3375 9.61282 31.6725 14.4793 38.0725 26.3227L38.3906 26.1589C38.7569 26.8623 39.2003 27.1611 39.5376 27.2671C40.0677 27.4405 40.6171 27.3249 41.1184 26.766C41.6292 26.1878 42.1786 24.6748 42.6798 22.7861C45.4654 12.34 51.557 3.01173 63.8945 2.90573C70.1692 2.84791 75.5572 7.09765 76.685 18.093C77.4946 25.7349 74.2753 32.5961 69.6295 38.3974C62.4872 47.3209 50.9209 54.664 45.3112 57.7091C48.4726 55.1073 57.0896 47.6389 62.333 40.3825C66.3138 34.8704 68.8391 28.9631 67.6343 24.0581C66.7957 20.6853 65.2053 18.6809 63.2969 17.6305C61.7258 16.7632 59.8944 16.5223 57.986 16.8017C55.7595 17.1294 53.3884 18.1605 51.2486 19.5963C47.9425 21.8031 45.1666 24.9447 44.0774 27.5658C43.4413 29.1077 42.8919 30.3026 42.4196 31.247C36.2219 43.5819 39.4605 20.6082 24.2796 21.3695ZM43.8461 33.9549C44.5304 32.8756 45.4268 31.2085 46.5738 28.6451C47.4028 26.7852 49.3208 24.7038 51.5956 23.0077C53.6968 21.4369 56.1354 20.2035 58.4004 19.9047C59.8848 19.712 61.292 19.924 62.4005 20.8684C63.3547 21.6779 64.0583 22.9788 64.5017 24.829C65.5041 28.9728 63.027 33.8296 59.6631 38.4552C54.2751 45.8465 46.3329 52.5439 43.6919 54.6736C40.8485 52.9776 32.3568 47.7642 25.7062 42.2135C23.5664 40.4307 16.9735 34.7065 17.5326 31.5072C18.2169 27.5273 20.9832 24.6074 24.4628 24.3665C32.0869 23.8461 34.6219 32.9334 39.393 36.817C41.5906 38.6094 42.728 35.7666 43.8557 33.9549H43.8461Z" fill="white"/>
<path fill-rule="evenodd" clip-rule="evenodd" d="M12.4332 15.5201C12.8284 15.2503 13.3682 15.3466 13.6381 15.7321C13.9176 16.1272 13.8116 16.6669 13.426 16.9367C11.8164 18.0642 10.5055 19.5193 9.55127 21.2153C8.22113 23.6052 7.6139 26.4866 7.94161 29.6377C8.26933 32.8274 9.56091 36.2966 12.0188 39.7947C15.1802 44.3143 20.2694 48.8917 27.7298 53.0354C28.1442 53.2667 28.2984 53.7967 28.0671 54.2111C27.8358 54.6255 27.3057 54.7797 26.8912 54.5484C19.1803 50.2601 13.9079 45.4996 10.6019 40.7776C7.97053 37.0194 6.58257 33.2707 6.22594 29.8015C5.85967 26.2842 6.54401 23.0559 8.04764 20.3577C9.11753 18.4304 10.6115 16.7729 12.4429 15.5008L12.4332 15.5201Z" fill="white"/>
<path fill-rule="evenodd" clip-rule="evenodd" d="M12.9357 17.5151C12.5405 17.7849 12.0007 17.6885 11.7308 17.2934C11.4609 16.8983 11.5573 16.3587 11.9525 16.0888C12.3188 15.8383 12.6947 15.607 13.0802 15.3854C16.7815 13.3231 21.4851 12.8413 26.0924 14.0941C30.6708 15.3372 35.1527 18.2956 38.4684 23.1139C38.9214 23.7692 39.3552 24.4631 39.76 25.1954C39.9913 25.6098 39.8371 26.1398 39.4227 26.3711C38.9986 26.6024 38.4781 26.4578 38.2467 26.0338C37.8708 25.3593 37.466 24.704 37.0419 24.0969C33.9768 19.6351 29.8418 16.908 25.6394 15.7612C21.4659 14.6241 17.2345 15.0481 13.9284 16.8983C13.5911 17.091 13.2634 17.2934 12.9357 17.5151Z" fill="white"/>
<path fill-rule="evenodd" clip-rule="evenodd" d="M66.8745 12.5038C66.46 12.2532 66.3347 11.7232 66.5757 11.3088C66.8263 10.8944 67.3564 10.7692 67.7709 11.0101C69.1299 11.8292 70.2866 12.8796 71.2312 14.1323C73.2649 16.8402 74.2481 20.4732 73.9685 24.6555C73.689 28.7607 72.1854 33.4152 69.2456 38.2721C65.8817 43.842 60.619 49.7011 53.1394 55.3096C52.7539 55.5987 52.2141 55.5216 51.9249 55.1361C51.6358 54.7507 51.7129 54.211 52.0984 53.9219C59.3853 48.4579 64.4937 42.7723 67.7612 37.3758C70.5468 32.7599 71.9733 28.3753 72.2336 24.5399C72.4938 20.7816 71.6263 17.5533 69.8432 15.1731C69.0432 14.1034 68.0408 13.1976 66.8745 12.4941V12.5038Z" fill="white"/>
<path fill-rule="evenodd" clip-rule="evenodd" d="M68.2776 11.5497C68.6921 11.7906 68.827 12.3302 68.5861 12.735C68.3451 13.1494 67.8053 13.2843 67.4005 13.0433C67.0632 12.841 66.7162 12.6579 66.3692 12.4941C62.9474 10.8751 58.6968 10.7306 54.61 12.1471C50.4943 13.5734 46.5521 16.5703 43.7955 21.2248C43.4099 21.8705 43.0533 22.545 42.7159 23.2389C42.5135 23.6725 41.993 23.8556 41.5593 23.6533C41.1255 23.4509 40.9424 22.9305 41.1448 22.4969C41.5015 21.7356 41.887 21.0128 42.2918 20.3286C45.2798 15.2983 49.5594 12.0508 54.0413 10.4993C58.5522 8.93814 63.2752 9.10197 67.1113 10.9137C67.5162 11.1064 67.9114 11.3088 68.2873 11.54L68.2776 11.5497Z" fill="white"/>
</svg>
